<svg width="300" height="296" viewBox="0 0 300 296" fill="none" xmlns="http://www.w3.org/2000/svg">
<path d="M124.019 41C135.566 21 164.434 21 175.981 41L253.923 176C265.47 196 251.036 221 227.942 221H72.0577C48.9637 221 34.5299 196 46.077 176L124.019 41Z" fill="#FC5454"/>
<path d="M113.02 167.72C110.42 167.72 108.06 167.3 105.94 166.46C103.82 165.62 102.06 164.5 100.66 163.1C99.3 161.66 98.14 160 97.18 158.12C96.26 156.24 95.6 154.3 95.2 152.3C94.8 150.26 94.6 148.16 94.6 146C94.6 143.84 94.8 141.76 95.2 139.76C95.6 137.72 96.26 135.76 97.18 133.88C98.14 132 99.3 130.36 100.66 128.96C102.06 127.52 103.82 126.38 105.94 125.54C108.06 124.7 110.42 124.28 113.02 124.28C116.26 124.28 119.1 124.92 121.54 126.2C124.02 127.44 125.94 129.14 127.3 131.3C128.7 133.42 129.74 135.72 130.42 138.2C131.1 140.68 131.44 143.28 131.44 146C131.44 148.72 131.1 151.32 130.42 153.8C129.74 156.28 128.7 158.6 127.3 160.76C125.94 162.88 124.02 164.58 121.54 165.86C119.1 167.1 116.26 167.72 113.02 167.72ZM113.02 160.82C114.94 160.82 116.64 160.36 118.12 159.44C119.6 158.52 120.74 157.32 121.54 155.84C122.38 154.32 123 152.74 123.4 151.1C123.8 149.42 124 147.72 124 146C124 144.16 123.8 142.42 123.4 140.78C123 139.1 122.38 137.52 121.54 136.04C120.74 134.56 119.6 133.38 118.12 132.5C116.68 131.62 114.98 131.18 113.02 131.18C110.46 131.18 108.32 132 106.6 133.64C104.88 135.24 103.68 137.1 103 139.22C102.36 141.34 102.04 143.6 102.04 146C102.04 147.8 102.24 149.54 102.64 151.22C103.04 152.9 103.64 154.48 104.44 155.96C105.28 157.44 106.42 158.62 107.86 159.5C109.34 160.38 111.06 160.82 113.02 160.82ZM148.581 167V150.56L133.461 125H141.621L152.181 143.18L162.741 125H170.901L155.721 150.56V167H148.581ZM176.198 167V125H193.658C198.498 125 202.058 126.26 204.338 128.78C206.618 131.3 207.758 134.38 207.758 138.02C207.758 141.46 206.558 144.5 204.158 147.14C201.798 149.78 198.298 151.1 193.658 151.1H183.398V167H176.198ZM194.018 144.26C196.138 144.26 197.718 143.64 198.758 142.4C199.798 141.16 200.318 139.7 200.318 138.02C200.318 136.42 199.818 135 198.818 133.76C197.858 132.48 196.258 131.84 194.018 131.84H183.398V144.26H194.018Z" fill="white"/>
</svg>
